<?xml version="1.0" encoding="utf-8" standalone="no"?><!DOCTYPE svg PUBLIC "-//W3C//DTD SVG 20010904//EN" "http://www.w3.org/TR/2001/REC-SVG-20010904/DTD/svg10.dtd"><svg xmlns="http://www.w3.org/2000/svg" width="776" height="331" xmlns:xlink="http://www.w3.org/1999/xlink"><source><![CDATA[Title: Register Flow of Control
CustomersController->RegisterUseCase: Input
RegisterUseCase->CustomerRepository: Customer
RegisterUseCase->Presenter: Output
Presenter-->>CustomersController: Response]]></source><desc>Register Flow of Control</desc><defs><marker viewBox="0 0 5 5" markerWidth="5" markerHeight="5" orient="auto" refX="5" refY="2.5" id="markerArrowBlock"><path d="M 0 0 L 5 2.5 L 0 5 z"></path></marker><marker viewBox="0 0 9.6 16" markerWidth="4" markerHeight="16" orient="auto" refX="9.6" refY="8" id="markerArrowOpen"><path d="M 9.6,8 1.92,16 0,13.7 5.76,8 0,2.286 1.92,0 9.6,8 z"></path></marker></defs><g class="title"><path d="M10,10C147.2,19.2 203.4,0.8 240.3,10.0C239.0,15.8 241.6,25.1 240.3,42.4C137.6,51.6 65.3,33.2 10.0,42.4C8.7,31.1 11.3,34.1 10.0,10.0" stroke="#000000" fill="#ffffff" style="stroke-width: 2;"></path><text x="15" y="28.609375" style="font-size: 16px; font-family: danielbd;"><tspan x="15">Register Flow of Control</tspan></text></g><g class="actor"><path d="M10,52.421875C48.6,44.0 110.6,60.8 219.3,52.4C221.0,65.2 217.7,68.7 219.3,94.0C185.8,85.7 169.1,102.4 10.0,94.0C8.3,85.7 11.7,72.3 10.0,52.4" stroke="#000000" fill="#ffffff" style="stroke-width: 2;"></path><text x="20" y="78.4375" style="font-size: 16px; font-family: danielbd;"><tspan x="20">CustomersController</tspan></text></g><g class="actor"><path d="M10,270.109375C178.2,261.7 70.6,278.5 219.3,270.1C221.0,282.1 217.7,276.8 219.3,311.7C43.5,320.1 172.8,303.4 10.0,311.7C11.7,276.8 8.3,290.3 10.0,270.1" stroke="#000000" fill="#ffffff" style="stroke-width: 2;"></path><text x="20" y="296.125" style="font-size: 16px; font-family: danielbd;"><tspan x="20">CustomersController</tspan></text></g><path d="M114.7,94.0C121.7,122.2 107.6,188.7 114.7,270.1" stroke="#000000" fill="none" style="stroke-width: 2;"></path><g class="actor"><path d="M239.328125,52.421875C363.6,45.9 360.5,59.0 402.8,52.4C404.4,59.1 401.1,85.4 402.8,94.0C309.9,100.6 274.2,87.5 239.3,94.0C241.0,63.4 237.7,59.1 239.3,52.4" stroke="#000000" fill="#ffffff" style="stroke-width: 2;"></path><text x="249.328125" y="75.234375" style="font-size: 16px; font-family: danielbd;"><tspan x="249.328125">RegisterUseCase</tspan></text></g><g class="actor"><path d="M239.328125,270.109375C376.6,276.6 268.4,263.6 402.8,270.1C404.4,301.7 401.1,284.5 402.8,311.7C306.3,318.3 278.6,305.2 239.3,311.7C237.7,280.3 241.0,276.8 239.3,270.1" stroke="#000000" fill="#ffffff" style="stroke-width: 2;"></path><text x="249.328125" y="292.921875" style="font-size: 16px; font-family: danielbd;"><tspan x="249.328125">RegisterUseCase</tspan></text></g><path d="M321.1,94.0C328.1,136.3 314.0,131.5 321.1,270.1" stroke="#000000" fill="none" style="stroke-width: 2;"></path><g class="actor"><path d="M422.78125,52.421875C558.6,44.4 471.1,60.5 624.0,52.4C622.3,59.1 625.6,69.6 624.0,94.0C575.7,102.1 591.8,86.0 422.8,94.0C424.4,65.1 421.1,59.4 422.8,52.4" stroke="#000000" fill="#ffffff" style="stroke-width: 2;"></path><text x="432.78125" y="75.234375" style="font-size: 16px; font-family: danielbd;"><tspan x="432.78125">CustomerRepository</tspan></text></g><g class="actor"><path d="M422.78125,270.109375C560.8,278.2 455.0,262.1 624.0,270.1C622.3,301.7 625.6,302.1 624.0,311.7C590.5,303.7 566.9,319.8 422.8,311.7C424.4,302.7 421.1,293.9 422.8,270.1" stroke="#000000" fill="#ffffff" style="stroke-width: 2;"></path><text x="432.78125" y="292.921875" style="font-size: 16px; font-family: danielbd;"><tspan x="432.78125">CustomerRepository</tspan></text></g><path d="M523.4,94.0C530.4,144.7 516.3,223.8 523.4,270.1" stroke="#000000" fill="none" style="stroke-width: 2;"></path><g class="actor"><path d="M643.953125,52.421875C730.2,48.3 675.1,56.5 746.6,52.4C748.3,62.4 745.0,59.1 746.6,94.0C685.8,89.9 704.4,98.2 644.0,94.0C642.3,67.3 645.6,63.3 644.0,52.4" stroke="#000000" fill="#ffffff" style="stroke-width: 2;"></path><text x="653.953125" y="78.0390625" style="font-size: 16px; font-family: danielbd;"><tspan x="653.953125">Presenter</tspan></text></g><g class="actor"><path d="M643.953125,270.109375C683.0,266.0 722.0,274.2 746.6,270.1C745.0,288.4 748.3,280.1 746.6,311.7C671.2,315.8 695.0,307.6 644.0,311.7C642.3,296.9 645.6,290.5 644.0,270.1" stroke="#000000" fill="#ffffff" style="stroke-width: 2;"></path><text x="653.953125" y="295.7265625" style="font-size: 16px; font-family: danielbd;"><tspan x="653.953125">Presenter</tspan></text></g><path d="M695.3,94.0C688.2,162.8 702.3,122.2 695.3,270.1" stroke="#000000" fill="none" style="stroke-width: 2;"></path><g class="signal"><text x="195.59375" y="121.8515625" style="font-size: 16px; font-family: danielbd;"><tspan x="195.59375">Input</tspan></text><path d="M114.7,134.1C147.7,142.3 264.9,125.8 321.1,134.1" stroke="#000000" fill="none" style="stroke-width: 2; marker-end: url(&quot;#markerArrowBlock&quot;);"></path></g><g class="signal"><text x="377.2578125" y="163.8671875" style="font-size: 16px; font-family: danielbd;"><tspan x="377.2578125">Customer</tspan></text><path d="M321.1,170.1C454.1,162.0 491.0,178.2 523.4,170.1" stroke="#000000" fill="none" style="stroke-width: 2; marker-end: url(&quot;#markerArrowBlock&quot;);"></path></g><g class="signal"><text x="474.171875" y="197.8828125" style="font-size: 16px; font-family: danielbd;"><tspan x="473.359375">Output</tspan></text><path d="M321.1,210.1C380.9,195.1 410.9,225.1 695.3,210.1" stroke="#000000" fill="none" style="stroke-width: 2; marker-end: url(&quot;#markerArrowBlock&quot;);"></path></g><g class="signal"><text x="367.140625" y="237.8984375" style="font-size: 16px; font-family: danielbd;"><tspan x="367.140625">Response</tspan></text><path d="M695.3,250.1C207.6,273.3 428.1,226.9 114.7,250.1" stroke="#000000" fill="none" style="stroke-width: 2; stroke-dasharray: 6, 2; marker-end: url(&quot;#markerArrowOpen&quot;);"></path></g></svg>